<svg width="149" height="36" viewBox="0 0 149 36" fill="none" xmlns="http://www.w3.org/2000/svg">
<path d="M52.524 11.7V17.712H59.592V19.608H52.524V27H50.196V9.804H60.792V11.7H52.524ZM68.1394 21.528C67.1554 21.56 66.3154 21.64 65.6194 21.768C64.9314 21.888 64.3674 22.048 63.9274 22.248C63.4954 22.448 63.1794 22.684 62.9794 22.956C62.7874 23.228 62.6914 23.532 62.6914 23.868C62.6914 24.188 62.7434 24.464 62.8474 24.696C62.9514 24.928 63.0914 25.12 63.2674 25.272C63.4514 25.416 63.6634 25.524 63.9034 25.596C64.1514 25.66 64.4154 25.692 64.6954 25.692C65.0714 25.692 65.4154 25.656 65.7274 25.584C66.0394 25.504 66.3314 25.392 66.6034 25.248C66.8834 25.104 67.1474 24.932 67.3954 24.732C67.6514 24.532 67.8994 24.304 68.1394 24.048V21.528ZM61.2394 16.56C61.9114 15.912 62.6354 15.428 63.4114 15.108C64.1874 14.788 65.0474 14.628 65.9914 14.628C66.6714 14.628 67.2754 14.74 67.8034 14.964C68.3314 15.188 68.7754 15.5 69.1354 15.9C69.4954 16.3 69.7674 16.784 69.9514 17.352C70.1354 17.92 70.2274 18.544 70.2274 19.224V27H69.2794C69.0714 27 68.9114 26.968 68.7994 26.904C68.6874 26.832 68.5994 26.696 68.5354 26.496L68.2954 25.344C67.9754 25.64 67.6634 25.904 67.3594 26.136C67.0554 26.36 66.7354 26.552 66.3994 26.712C66.0634 26.864 65.7034 26.98 65.3194 27.06C64.9434 27.148 64.5234 27.192 64.0594 27.192C63.5874 27.192 63.1434 27.128 62.7274 27C62.3114 26.864 61.9474 26.664 61.6354 26.4C61.3314 26.136 61.0874 25.804 60.9034 25.404C60.7274 24.996 60.6394 24.516 60.6394 23.964C60.6394 23.484 60.7714 23.024 61.0354 22.584C61.2994 22.136 61.7274 21.74 62.3194 21.396C62.9114 21.052 63.6834 20.772 64.6354 20.556C65.5874 20.332 66.7554 20.204 68.1394 20.172V19.224C68.1394 18.28 67.9354 17.568 67.5274 17.088C67.1194 16.6 66.5234 16.356 65.7394 16.356C65.2114 16.356 64.7674 16.424 64.4074 16.56C64.0554 16.688 63.7474 16.836 63.4834 17.004C63.2274 17.164 63.0034 17.312 62.8114 17.448C62.6274 17.576 62.4434 17.64 62.2594 17.64C62.1154 17.64 61.9914 17.604 61.8874 17.532C61.7834 17.452 61.6954 17.356 61.6234 17.244L61.2394 16.56ZM81.9411 17.004C81.8771 17.092 81.8131 17.16 81.7491 17.208C81.6851 17.256 81.5971 17.28 81.4851 17.28C81.3651 17.28 81.2331 17.232 81.0891 17.136C80.9451 17.032 80.7651 16.92 80.5491 16.8C80.3411 16.68 80.0811 16.572 79.7691 16.476C79.4651 16.372 79.0891 16.32 78.6411 16.32C78.0411 16.32 77.5131 16.428 77.0571 16.644C76.6011 16.852 76.2171 17.156 75.9051 17.556C75.6011 17.956 75.3691 18.44 75.2091 19.008C75.0571 19.576 74.9811 20.212 74.9811 20.916C74.9811 21.652 75.0651 22.308 75.2331 22.884C75.4011 23.452 75.6371 23.932 75.9411 24.324C76.2531 24.708 76.6251 25.004 77.0571 25.212C77.4971 25.412 77.9891 25.512 78.5331 25.512C79.0531 25.512 79.4811 25.452 79.8171 25.332C80.1531 25.204 80.4291 25.064 80.6451 24.912C80.8691 24.76 81.0531 24.624 81.1971 24.504C81.3491 24.376 81.4971 24.312 81.6411 24.312C81.8171 24.312 81.9531 24.38 82.0491 24.516L82.6491 25.296C82.3851 25.624 82.0851 25.904 81.7491 26.136C81.4131 26.368 81.0491 26.564 80.6571 26.724C80.2731 26.876 79.8691 26.988 79.4451 27.06C79.0211 27.132 78.5891 27.168 78.1491 27.168C77.3891 27.168 76.6811 27.028 76.0251 26.748C75.3771 26.468 74.8131 26.064 74.3331 25.536C73.8531 25 73.4771 24.344 73.2051 23.568C72.9331 22.792 72.7971 21.908 72.7971 20.916C72.7971 20.012 72.9211 19.176 73.1691 18.408C73.4251 17.64 73.7931 16.98 74.2731 16.428C74.7611 15.868 75.3571 15.432 76.0611 15.12C76.7731 14.808 77.5891 14.652 78.5091 14.652C79.3651 14.652 80.1171 14.792 80.7651 15.072C81.4211 15.344 82.0011 15.732 82.5051 16.236L81.9411 17.004ZM92.8671 19.596C92.8671 19.1 92.7951 18.648 92.6511 18.24C92.5151 17.824 92.3111 17.468 92.0391 17.172C91.7751 16.868 91.4511 16.636 91.0671 16.476C90.6831 16.308 90.2471 16.224 89.7591 16.224C88.7351 16.224 87.9231 16.524 87.3231 17.124C86.7311 17.716 86.3631 18.54 86.2191 19.596H92.8671ZM94.5951 25.296C94.3311 25.616 94.0151 25.896 93.6471 26.136C93.2791 26.368 92.8831 26.56 92.4591 26.712C92.0431 26.864 91.6111 26.976 91.1631 27.048C90.7151 27.128 90.2711 27.168 89.8311 27.168C88.9911 27.168 88.2151 27.028 87.5031 26.748C86.7991 26.46 86.1871 26.044 85.6671 25.5C85.1551 24.948 84.7551 24.268 84.4671 23.46C84.1791 22.652 84.0351 21.724 84.0351 20.676C84.0351 19.828 84.1631 19.036 84.4191 18.3C84.6831 17.564 85.0591 16.928 85.5471 16.392C86.0351 15.848 86.6311 15.424 87.3351 15.12C88.0391 14.808 88.8311 14.652 89.7111 14.652C90.4391 14.652 91.1111 14.776 91.7271 15.024C92.3511 15.264 92.8871 15.616 93.3351 16.08C93.7911 16.536 94.1471 17.104 94.4031 17.784C94.6591 18.456 94.7871 19.224 94.7871 20.088C94.7871 20.424 94.7511 20.648 94.6791 20.76C94.6071 20.872 94.4711 20.928 94.2711 20.928H86.1471C86.1711 21.696 86.2751 22.364 86.4591 22.932C86.6511 23.5 86.9151 23.976 87.2511 24.36C87.5871 24.736 87.9871 25.02 88.4511 25.212C88.9151 25.396 89.4351 25.488 90.0111 25.488C90.5471 25.488 91.0071 25.428 91.3911 25.308C91.7831 25.18 92.1191 25.044 92.3991 24.9C92.6791 24.756 92.9111 24.624 93.0951 24.504C93.2871 24.376 93.4511 24.312 93.5871 24.312C93.7631 24.312 93.8991 24.38 93.9951 24.516L94.5951 25.296ZM99.5588 24.072C99.9508 24.6 100.379 24.972 100.843 25.188C101.315 25.404 101.831 25.512 102.391 25.512C103.535 25.512 104.411 25.108 105.019 24.3C105.627 23.492 105.931 22.288 105.931 20.688C105.931 19.2 105.659 18.108 105.115 17.412C104.579 16.708 103.811 16.356 102.811 16.356C102.115 16.356 101.507 16.516 100.987 16.836C100.475 17.156 99.9988 17.608 99.5588 18.192V24.072ZM99.5588 16.596C100.071 16.004 100.647 15.532 101.287 15.18C101.935 14.828 102.679 14.652 103.519 14.652C104.231 14.652 104.871 14.788 105.439 15.06C106.015 15.332 106.503 15.728 106.903 16.248C107.303 16.76 107.607 17.384 107.815 18.12C108.031 18.856 108.139 19.684 108.139 20.604C108.139 21.588 108.019 22.484 107.779 23.292C107.539 24.1 107.191 24.792 106.735 25.368C106.287 25.936 105.739 26.38 105.091 26.7C104.443 27.012 103.715 27.168 102.907 27.168C102.107 27.168 101.431 27.02 100.879 26.724C100.335 26.42 99.8588 25.992 99.4508 25.44L99.3428 26.544C99.2788 26.848 99.0948 27 98.7908 27H97.4108V9.324H99.5588V16.596ZM115.964 14.652C116.852 14.652 117.652 14.8 118.364 15.096C119.076 15.392 119.684 15.812 120.188 16.356C120.692 16.9 121.076 17.56 121.34 18.336C121.612 19.104 121.748 19.964 121.748 20.916C121.748 21.876 121.612 22.74 121.34 23.508C121.076 24.276 120.692 24.932 120.188 25.476C119.684 26.02 119.076 26.44 118.364 26.736C117.652 27.024 116.852 27.168 115.964 27.168C115.068 27.168 114.26 27.024 113.54 26.736C112.828 26.44 112.22 26.02 111.716 25.476C111.212 24.932 110.824 24.276 110.552 23.508C110.288 22.74 110.156 21.876 110.156 20.916C110.156 19.964 110.288 19.104 110.552 18.336C110.824 17.56 111.212 16.9 111.716 16.356C112.22 15.812 112.828 15.392 113.54 15.096C114.26 14.8 115.068 14.652 115.964 14.652ZM115.964 25.5C117.164 25.5 118.06 25.1 118.652 24.3C119.244 23.492 119.54 22.368 119.54 20.928C119.54 19.48 119.244 18.352 118.652 17.544C118.06 16.736 117.164 16.332 115.964 16.332C115.356 16.332 114.824 16.436 114.368 16.644C113.92 16.852 113.544 17.152 113.24 17.544C112.944 17.936 112.72 18.42 112.568 18.996C112.424 19.564 112.352 20.208 112.352 20.928C112.352 22.368 112.648 23.492 113.24 24.3C113.84 25.1 114.748 25.5 115.964 25.5ZM129.582 14.652C130.47 14.652 131.27 14.8 131.982 15.096C132.694 15.392 133.302 15.812 133.806 16.356C134.31 16.9 134.694 17.56 134.958 18.336C135.23 19.104 135.366 19.964 135.366 20.916C135.366 21.876 135.23 22.74 134.958 23.508C134.694 24.276 134.31 24.932 133.806 25.476C133.302 26.02 132.694 26.44 131.982 26.736C131.27 27.024 130.47 27.168 129.582 27.168C128.686 27.168 127.878 27.024 127.158 26.736C126.446 26.44 125.838 26.02 125.334 25.476C124.83 24.932 124.442 24.276 124.17 23.508C123.906 22.74 123.774 21.876 123.774 20.916C123.774 19.964 123.906 19.104 124.17 18.336C124.442 17.56 124.83 16.9 125.334 16.356C125.838 15.812 126.446 15.392 127.158 15.096C127.878 14.8 128.686 14.652 129.582 14.652ZM129.582 25.5C130.782 25.5 131.678 25.1 132.27 24.3C132.862 23.492 133.158 22.368 133.158 20.928C133.158 19.48 132.862 18.352 132.27 17.544C131.678 16.736 130.782 16.332 129.582 16.332C128.974 16.332 128.442 16.436 127.986 16.644C127.538 16.852 127.162 17.152 126.858 17.544C126.562 17.936 126.338 18.42 126.186 18.996C126.042 19.564 125.97 20.208 125.97 20.928C125.97 22.368 126.266 23.492 126.858 24.3C127.458 25.1 128.366 25.5 129.582 25.5ZM140.223 9.324V19.728H140.775C140.935 19.728 141.067 19.708 141.171 19.668C141.283 19.62 141.399 19.528 141.519 19.392L145.359 15.276C145.471 15.14 145.587 15.036 145.707 14.964C145.835 14.884 146.003 14.844 146.211 14.844H148.143L143.667 19.608C143.451 19.88 143.219 20.092 142.971 20.244C143.115 20.34 143.243 20.452 143.355 20.58C143.475 20.7 143.587 20.84 143.691 21L148.443 27H146.535C146.351 27 146.191 26.972 146.055 26.916C145.927 26.852 145.815 26.74 145.719 26.58L141.723 21.6C141.603 21.432 141.483 21.324 141.363 21.276C141.251 21.22 141.075 21.192 140.835 21.192H140.223V27H138.075V9.324H140.223Z" fill="#E7F1E9"/>
<g clip-path="url(#clip0_65_6394)">
<mask id="mask0_65_6394" style="mask-type:luminance" maskUnits="userSpaceOnUse" x="0" y="0" width="36" height="36">
<path d="M0.5 0.5H35.5V35.5H0.5V0.5Z" fill="white" stroke="white"/>
</mask>
<g mask="url(#mask0_65_6394)">
<path fill-rule="evenodd" clip-rule="evenodd" d="M0 18.1005C0 27.0495 6.4995 34.491 15 36V22.9995H10.5V18H15V13.9995C15 9.4995 17.8995 7.0005 22.0005 7.0005C23.2995 7.0005 24.7005 7.2 25.9995 7.3995V12H23.7C21.4995 12 21 13.0995 21 14.5005V18H25.8L25.0005 22.9995H21V36C29.5005 34.491 36 27.051 36 18.1005C36 8.145 27.9 0 18 0C8.1 0 0 8.145 0 18.1005Z" fill="#E7F1E9"/>
</g>
</g>
<defs>
<clipPath id="clip0_65_6394">
<rect width="36" height="36" fill="white"/>
</clipPath>
</defs>
</svg>
