<svg width="152" height="36" viewBox="0 0 152 36" fill="none" xmlns="http://www.w3.org/2000/svg">
<path d="M52.524 27H50.196V9.804H52.524V27ZM58.2471 16.608C58.5111 16.312 58.7911 16.044 59.0871 15.804C59.3831 15.564 59.6951 15.36 60.0231 15.192C60.3591 15.016 60.7111 14.884 61.0791 14.796C61.4551 14.7 61.8591 14.652 62.2911 14.652C62.9551 14.652 63.5391 14.764 64.0431 14.988C64.5551 15.204 64.9791 15.516 65.3151 15.924C65.6591 16.324 65.9191 16.808 66.0951 17.376C66.2711 17.944 66.3591 18.572 66.3591 19.26V27H64.2111V19.26C64.2111 18.34 63.9991 17.628 63.5751 17.124C63.1591 16.612 62.5231 16.356 61.6671 16.356C61.0351 16.356 60.4431 16.508 59.8911 16.812C59.3471 17.116 58.8431 17.528 58.3791 18.048V27H56.2311V14.844H57.5151C57.8191 14.844 58.0071 14.992 58.0791 15.288L58.2471 16.608ZM76.6939 16.848C76.5979 17.024 76.4499 17.112 76.2499 17.112C76.1299 17.112 75.9939 17.068 75.8419 16.98C75.6899 16.892 75.5019 16.796 75.2779 16.692C75.0619 16.58 74.8019 16.48 74.4979 16.392C74.1939 16.296 73.8339 16.248 73.4179 16.248C73.0579 16.248 72.7339 16.296 72.4459 16.392C72.1579 16.48 71.9099 16.604 71.7019 16.764C71.5019 16.924 71.3459 17.112 71.2339 17.328C71.1299 17.536 71.0779 17.764 71.0779 18.012C71.0779 18.324 71.1659 18.584 71.3419 18.792C71.5259 19 71.7659 19.18 72.0619 19.332C72.3579 19.484 72.6939 19.62 73.0699 19.74C73.4459 19.852 73.8299 19.976 74.2219 20.112C74.6219 20.24 75.0099 20.384 75.3859 20.544C75.7619 20.704 76.0979 20.904 76.3939 21.144C76.6899 21.384 76.9259 21.68 77.1019 22.032C77.2859 22.376 77.3779 22.792 77.3779 23.28C77.3779 23.84 77.2779 24.36 77.0779 24.84C76.8779 25.312 76.5819 25.724 76.1899 26.076C75.7979 26.42 75.3179 26.692 74.7499 26.892C74.1819 27.092 73.5259 27.192 72.7819 27.192C71.9339 27.192 71.1659 27.056 70.4779 26.784C69.7899 26.504 69.2059 26.148 68.7259 25.716L69.2299 24.9C69.2939 24.796 69.3699 24.716 69.4579 24.66C69.5459 24.604 69.6579 24.576 69.7939 24.576C69.9379 24.576 70.0899 24.632 70.2499 24.744C70.4099 24.856 70.6019 24.98 70.8259 25.116C71.0579 25.252 71.3379 25.376 71.6659 25.488C71.9939 25.6 72.4019 25.656 72.8899 25.656C73.3059 25.656 73.6699 25.604 73.9819 25.5C74.2939 25.388 74.5539 25.24 74.7619 25.056C74.9699 24.872 75.1219 24.66 75.2179 24.42C75.3219 24.18 75.3739 23.924 75.3739 23.652C75.3739 23.316 75.2819 23.04 75.0979 22.824C74.9219 22.6 74.6859 22.412 74.3899 22.26C74.0939 22.1 73.7539 21.964 73.3699 21.852C72.9939 21.732 72.6059 21.608 72.2059 21.48C71.8139 21.352 71.4259 21.208 71.0419 21.048C70.6659 20.88 70.3299 20.672 70.0339 20.424C69.7379 20.176 69.4979 19.872 69.3139 19.512C69.1379 19.144 69.0499 18.7 69.0499 18.18C69.0499 17.716 69.1459 17.272 69.3379 16.848C69.5299 16.416 69.8099 16.04 70.1779 15.72C70.5459 15.392 70.9979 15.132 71.5339 14.94C72.0699 14.748 72.6819 14.652 73.3699 14.652C74.1699 14.652 74.8859 14.78 75.5179 15.036C76.1579 15.284 76.7099 15.628 77.1739 16.068L76.6939 16.848ZM83.7287 27.192C82.7687 27.192 82.0287 26.924 81.5087 26.388C80.9967 25.852 80.7407 25.08 80.7407 24.072V16.632H79.2767C79.1487 16.632 79.0407 16.596 78.9527 16.524C78.8647 16.444 78.8207 16.324 78.8207 16.164V15.312L80.8127 15.06L81.3047 11.304C81.3287 11.184 81.3807 11.088 81.4607 11.016C81.5487 10.936 81.6607 10.896 81.7967 10.896H82.8767V15.084H86.3927V16.632H82.8767V23.928C82.8767 24.44 83.0007 24.82 83.2487 25.068C83.4967 25.316 83.8167 25.44 84.2087 25.44C84.4327 25.44 84.6247 25.412 84.7847 25.356C84.9527 25.292 85.0967 25.224 85.2167 25.152C85.3367 25.08 85.4367 25.016 85.5167 24.96C85.6047 24.896 85.6807 24.864 85.7447 24.864C85.8567 24.864 85.9567 24.932 86.0447 25.068L86.6687 26.088C86.3007 26.432 85.8567 26.704 85.3367 26.904C84.8167 27.096 84.2807 27.192 83.7287 27.192ZM95.1863 21.528C94.2023 21.56 93.3623 21.64 92.6663 21.768C91.9783 21.888 91.4143 22.048 90.9743 22.248C90.5423 22.448 90.2263 22.684 90.0263 22.956C89.8343 23.228 89.7383 23.532 89.7383 23.868C89.7383 24.188 89.7903 24.464 89.8943 24.696C89.9983 24.928 90.1383 25.12 90.3143 25.272C90.4983 25.416 90.7103 25.524 90.9503 25.596C91.1983 25.66 91.4623 25.692 91.7423 25.692C92.1183 25.692 92.4623 25.656 92.7743 25.584C93.0863 25.504 93.3783 25.392 93.6503 25.248C93.9303 25.104 94.1943 24.932 94.4423 24.732C94.6983 24.532 94.9463 24.304 95.1863 24.048V21.528ZM88.2863 16.56C88.9583 15.912 89.6823 15.428 90.4583 15.108C91.2343 14.788 92.0943 14.628 93.0383 14.628C93.7183 14.628 94.3223 14.74 94.8503 14.964C95.3783 15.188 95.8223 15.5 96.1823 15.9C96.5423 16.3 96.8143 16.784 96.9983 17.352C97.1823 17.92 97.2743 18.544 97.2743 19.224V27H96.3263C96.1183 27 95.9583 26.968 95.8463 26.904C95.7343 26.832 95.6463 26.696 95.5823 26.496L95.3423 25.344C95.0223 25.64 94.7103 25.904 94.4062 26.136C94.1023 26.36 93.7823 26.552 93.4463 26.712C93.1103 26.864 92.7503 26.98 92.3663 27.06C91.9903 27.148 91.5703 27.192 91.1063 27.192C90.6343 27.192 90.1903 27.128 89.7743 27C89.3583 26.864 88.9943 26.664 88.6823 26.4C88.3783 26.136 88.1343 25.804 87.9503 25.404C87.7743 24.996 87.6863 24.516 87.6863 23.964C87.6863 23.484 87.8183 23.024 88.0823 22.584C88.3463 22.136 88.7743 21.74 89.3663 21.396C89.9583 21.052 90.7303 20.772 91.6823 20.556C92.6343 20.332 93.8023 20.204 95.1863 20.172V19.224C95.1863 18.28 94.9823 17.568 94.5743 17.088C94.1663 16.6 93.5703 16.356 92.7863 16.356C92.2583 16.356 91.8143 16.424 91.4543 16.56C91.1023 16.688 90.7943 16.836 90.5303 17.004C90.2743 17.164 90.0503 17.312 89.8583 17.448C89.6743 17.576 89.4903 17.64 89.3063 17.64C89.1623 17.64 89.0383 17.604 88.9343 17.532C88.8303 17.452 88.7423 17.356 88.6702 17.244L88.2863 16.56ZM104.764 21.06C105.196 21.06 105.576 21 105.904 20.88C106.232 20.76 106.508 20.592 106.732 20.376C106.956 20.16 107.124 19.904 107.236 19.608C107.348 19.304 107.404 18.972 107.404 18.612C107.404 17.868 107.176 17.276 106.72 16.836C106.272 16.396 105.62 16.176 104.764 16.176C103.9 16.176 103.24 16.396 102.784 16.836C102.336 17.276 102.112 17.868 102.112 18.612C102.112 18.972 102.168 19.304 102.28 19.608C102.4 19.904 102.572 20.16 102.796 20.376C103.02 20.592 103.296 20.76 103.624 20.88C103.952 21 104.332 21.06 104.764 21.06ZM108.616 27.66C108.616 27.364 108.532 27.124 108.364 26.94C108.196 26.756 107.968 26.612 107.68 26.508C107.4 26.404 107.072 26.332 106.696 26.292C106.32 26.244 105.92 26.208 105.496 26.184C105.08 26.16 104.656 26.136 104.224 26.112C103.792 26.088 103.376 26.048 102.976 25.992C102.528 26.2 102.16 26.464 101.872 26.784C101.592 27.096 101.452 27.464 101.452 27.888C101.452 28.16 101.52 28.412 101.656 28.644C101.8 28.884 102.016 29.088 102.304 29.256C102.592 29.432 102.952 29.568 103.384 29.664C103.824 29.768 104.34 29.82 104.932 29.82C105.508 29.82 106.024 29.768 106.48 29.664C106.936 29.56 107.32 29.412 107.632 29.22C107.952 29.028 108.196 28.8 108.364 28.536C108.532 28.272 108.616 27.98 108.616 27.66ZM110.788 15.324V16.116C110.788 16.38 110.62 16.548 110.284 16.62L108.904 16.8C109.176 17.328 109.312 17.912 109.312 18.552C109.312 19.144 109.196 19.684 108.964 20.172C108.74 20.652 108.428 21.064 108.028 21.408C107.628 21.752 107.148 22.016 106.588 22.2C106.028 22.384 105.42 22.476 104.764 22.476C104.196 22.476 103.66 22.408 103.156 22.272C102.9 22.432 102.704 22.604 102.568 22.788C102.432 22.964 102.364 23.144 102.364 23.328C102.364 23.616 102.48 23.836 102.712 23.988C102.952 24.132 103.264 24.236 103.648 24.3C104.032 24.364 104.468 24.404 104.956 24.42C105.452 24.436 105.956 24.464 106.468 24.504C106.988 24.536 107.492 24.596 107.98 24.684C108.476 24.772 108.916 24.916 109.3 25.116C109.684 25.316 109.992 25.592 110.224 25.944C110.464 26.296 110.584 26.752 110.584 27.312C110.584 27.832 110.452 28.336 110.188 28.824C109.932 29.312 109.56 29.744 109.072 30.12C108.584 30.504 107.984 30.808 107.272 31.032C106.568 31.264 105.772 31.38 104.884 31.38C103.996 31.38 103.22 31.292 102.556 31.116C101.892 30.94 101.34 30.704 100.9 30.408C100.46 30.112 100.128 29.768 99.9039 29.376C99.6879 28.992 99.5799 28.588 99.5799 28.164C99.5799 27.564 99.7679 27.056 100.144 26.64C100.52 26.224 101.036 25.892 101.692 25.644C101.332 25.484 101.044 25.272 100.828 25.008C100.62 24.736 100.516 24.372 100.516 23.916C100.516 23.74 100.548 23.56 100.612 23.376C100.676 23.184 100.772 22.996 100.9 22.812C101.036 22.62 101.2 22.44 101.392 22.272C101.584 22.104 101.808 21.956 102.064 21.828C101.464 21.492 100.996 21.048 100.66 20.496C100.324 19.936 100.156 19.288 100.156 18.552C100.156 17.96 100.268 17.424 100.492 16.944C100.724 16.456 101.044 16.044 101.452 15.708C101.86 15.364 102.344 15.1 102.904 14.916C103.472 14.732 104.092 14.64 104.764 14.64C105.292 14.64 105.784 14.7 106.24 14.82C106.696 14.932 107.112 15.1 107.488 15.324H110.788ZM115.025 17.28C115.409 16.448 115.881 15.8 116.441 15.336C117.001 14.864 117.685 14.628 118.493 14.628C118.749 14.628 118.993 14.656 119.225 14.712C119.465 14.768 119.677 14.856 119.861 14.976L119.705 16.572C119.657 16.772 119.537 16.872 119.345 16.872C119.233 16.872 119.069 16.848 118.853 16.8C118.637 16.752 118.393 16.728 118.121 16.728C117.737 16.728 117.393 16.784 117.089 16.896C116.793 17.008 116.525 17.176 116.285 17.4C116.053 17.616 115.841 17.888 115.649 18.216C115.465 18.536 115.297 18.904 115.145 19.32V27H112.997V14.844H114.221C114.453 14.844 114.613 14.888 114.701 14.976C114.789 15.064 114.849 15.216 114.881 15.432L115.025 17.28ZM128.139 21.528C127.155 21.56 126.315 21.64 125.619 21.768C124.931 21.888 124.367 22.048 123.927 22.248C123.495 22.448 123.179 22.684 122.979 22.956C122.787 23.228 122.691 23.532 122.691 23.868C122.691 24.188 122.743 24.464 122.847 24.696C122.951 24.928 123.091 25.12 123.267 25.272C123.451 25.416 123.663 25.524 123.903 25.596C124.151 25.66 124.415 25.692 124.695 25.692C125.071 25.692 125.415 25.656 125.727 25.584C126.039 25.504 126.331 25.392 126.603 25.248C126.883 25.104 127.147 24.932 127.395 24.732C127.651 24.532 127.899 24.304 128.139 24.048V21.528ZM121.239 16.56C121.911 15.912 122.635 15.428 123.411 15.108C124.187 14.788 125.047 14.628 125.991 14.628C126.671 14.628 127.275 14.74 127.803 14.964C128.331 15.188 128.775 15.5 129.135 15.9C129.495 16.3 129.767 16.784 129.951 17.352C130.135 17.92 130.227 18.544 130.227 19.224V27H129.279C129.071 27 128.911 26.968 128.799 26.904C128.687 26.832 128.599 26.696 128.535 26.496L128.295 25.344C127.975 25.64 127.663 25.904 127.359 26.136C127.055 26.36 126.735 26.552 126.399 26.712C126.063 26.864 125.703 26.98 125.319 27.06C124.943 27.148 124.523 27.192 124.059 27.192C123.587 27.192 123.143 27.128 122.727 27C122.311 26.864 121.947 26.664 121.635 26.4C121.331 26.136 121.087 25.804 120.903 25.404C120.727 24.996 120.639 24.516 120.639 23.964C120.639 23.484 120.771 23.024 121.035 22.584C121.299 22.136 121.727 21.74 122.319 21.396C122.911 21.052 123.683 20.772 124.635 20.556C125.587 20.332 126.755 20.204 128.139 20.172V19.224C128.139 18.28 127.935 17.568 127.527 17.088C127.119 16.6 126.523 16.356 125.739 16.356C125.211 16.356 124.767 16.424 124.407 16.56C124.055 16.688 123.747 16.836 123.483 17.004C123.227 17.164 123.003 17.312 122.811 17.448C122.627 17.576 122.443 17.64 122.259 17.64C122.115 17.64 121.991 17.604 121.887 17.532C121.783 17.452 121.695 17.356 121.623 17.244L121.239 16.56ZM133.481 27V14.844H134.765C135.069 14.844 135.257 14.992 135.329 15.288L135.485 16.536C135.933 15.984 136.437 15.532 136.997 15.18C137.557 14.828 138.205 14.652 138.941 14.652C139.757 14.652 140.417 14.88 140.921 15.336C141.433 15.792 141.801 16.408 142.025 17.184C142.201 16.744 142.425 16.364 142.697 16.044C142.977 15.724 143.289 15.46 143.633 15.252C143.977 15.044 144.341 14.892 144.725 14.796C145.117 14.7 145.513 14.652 145.913 14.652C146.553 14.652 147.121 14.756 147.617 14.964C148.121 15.164 148.545 15.46 148.889 15.852C149.241 16.244 149.509 16.728 149.693 17.304C149.877 17.872 149.969 18.524 149.969 19.26V27H147.821V19.26C147.821 18.308 147.613 17.588 147.197 17.1C146.781 16.604 146.181 16.356 145.397 16.356C145.045 16.356 144.709 16.42 144.389 16.548C144.077 16.668 143.801 16.848 143.561 17.088C143.321 17.328 143.129 17.632 142.985 18C142.849 18.36 142.781 18.78 142.781 19.26V27H140.633V19.26C140.633 18.284 140.437 17.556 140.045 17.076C139.653 16.596 139.081 16.356 138.329 16.356C137.801 16.356 137.313 16.5 136.865 16.788C136.417 17.068 136.005 17.452 135.629 17.94V27H133.481Z" fill="#E7F1E9"/>
<g clip-path="url(#clip0_65_6400)">
<path d="M14.1109 14.1109C15.1424 13.0795 16.5413 12.5 18 12.5C19.4587 12.5 20.8576 13.0795 21.8891 14.1109C22.9205 15.1424 23.5 16.5413 23.5 18C23.5 19.4587 22.9205 20.8576 21.8891 21.8891C20.8576 22.9205 19.4587 23.5 18 23.5C16.5413 23.5 15.1424 22.9205 14.1109 21.8891C13.0795 20.8576 12.5 19.4587 12.5 18C12.5 16.5413 13.0795 15.1424 14.1109 14.1109Z" fill="#E7F1E9" stroke="#E7F1E9"/>
<path fill-rule="evenodd" clip-rule="evenodd" d="M10.8 0C7.93566 0 5.18864 1.13785 3.16325 3.16325C1.13785 5.18864 0 7.93566 0 10.8L0 25.2C0 28.0643 1.13785 30.8114 3.16325 32.8368C5.18864 34.8621 7.93566 36 10.8 36H25.2C28.0643 36 30.8114 34.8621 32.8368 32.8368C34.8621 30.8114 36 28.0643 36 25.2V10.8C36 7.93566 34.8621 5.18864 32.8368 3.16325C30.8114 1.13785 28.0643 0 25.2 0L10.8 0ZM9.6 18C9.6 15.7722 10.485 13.6356 12.0603 12.0603C13.6356 10.485 15.7722 9.6 18 9.6C20.2278 9.6 22.3644 10.485 23.9397 12.0603C25.515 13.6356 26.4 15.7722 26.4 18C26.4 20.2278 25.515 22.3644 23.9397 23.9397C22.3644 25.515 20.2278 26.4 18 26.4C15.7722 26.4 13.6356 25.515 12.0603 23.9397C10.485 22.3644 9.6 20.2278 9.6 18ZM26.4 9.6H28.8V7.2H26.4V9.6Z" fill="#E7F1E9"/>
</g>
<defs>
<clipPath id="clip0_65_6400">
<rect width="36" height="36" fill="white"/>
</clipPath>
</defs>
</svg>
