<svg width="24" height="24" viewBox="0 0 24 24" fill="none" xmlns="http://www.w3.org/2000/svg">
<path d="M17.5 1H6.5C3.46243 1 1 3.46243 1 6.5V17.5C1 20.5376 3.46243 23 6.5 23H17.5C20.5376 23 23 20.5376 23 17.5V6.5C23 3.46243 20.5376 1 17.5 1Z" fill="#0B721A"/>
<path d="M16.3989 11.303C16.5346 12.2185 16.3783 13.1535 15.952 13.9749C15.5258 14.7964 14.8514 15.4626 14.0247 15.8787C13.198 16.2948 12.2612 16.4396 11.3475 16.2926C10.4337 16.1455 9.58963 15.7141 8.93522 15.0597C8.28081 14.4053 7.8494 13.5612 7.70237 12.6475C7.55534 11.7337 7.70017 10.7969 8.11626 9.97024C8.53234 9.14357 9.1985 8.46914 10.02 8.04289C10.8415 7.61665 11.7764 7.46028 12.6919 7.59603C13.6257 7.7345 14.4902 8.16964 15.1578 8.83717C15.8253 9.50469 16.2604 10.3692 16.3989 11.303Z" stroke="white" stroke-width="2" stroke-linecap="round" stroke-linejoin="round"/>
<path d="M18.0508 5.95H18.0618" stroke="white" stroke-width="2" stroke-linecap="round" stroke-linejoin="round"/>
</svg>
