<svg width="144" height="36" viewBox="0 0 144 36" fill="none" xmlns="http://www.w3.org/2000/svg">
<path d="M66.952 25.044V27H57.196V9.804H59.512V25.044H66.952ZM71.2761 14.844V27H69.1401V14.844H71.2761ZM71.7321 11.028C71.7321 11.236 71.6881 11.432 71.6001 11.616C71.5201 11.792 71.4081 11.952 71.2641 12.096C71.1281 12.232 70.9641 12.34 70.7721 12.42C70.5881 12.5 70.3921 12.54 70.1841 12.54C69.9761 12.54 69.7801 12.5 69.5961 12.42C69.4201 12.34 69.2641 12.232 69.1281 12.096C68.9921 11.952 68.8841 11.792 68.8041 11.616C68.7241 11.432 68.6841 11.236 68.6841 11.028C68.6841 10.82 68.7241 10.624 68.8041 10.44C68.8841 10.248 68.9921 10.084 69.1281 9.948C69.2641 9.804 69.4201 9.692 69.5961 9.612C69.7801 9.532 69.9761 9.492 70.1841 9.492C70.3921 9.492 70.5881 9.532 70.7721 9.612C70.9641 9.692 71.1281 9.804 71.2641 9.948C71.4081 10.084 71.5201 10.248 71.6001 10.44C71.6881 10.624 71.7321 10.82 71.7321 11.028ZM76.8018 16.608C77.0658 16.312 77.3458 16.044 77.6418 15.804C77.9378 15.564 78.2498 15.36 78.5778 15.192C78.9138 15.016 79.2658 14.884 79.6338 14.796C80.0098 14.7 80.4138 14.652 80.8458 14.652C81.5098 14.652 82.0938 14.764 82.5978 14.988C83.1098 15.204 83.5338 15.516 83.8698 15.924C84.2138 16.324 84.4738 16.808 84.6498 17.376C84.8258 17.944 84.9138 18.572 84.9138 19.26V27H82.7658V19.26C82.7658 18.34 82.5538 17.628 82.1298 17.124C81.7138 16.612 81.0778 16.356 80.2218 16.356C79.5898 16.356 78.9978 16.508 78.4458 16.812C77.9018 17.116 77.3978 17.528 76.9338 18.048V27H74.7858V14.844H76.0698C76.3738 14.844 76.5618 14.992 76.6338 15.288L76.8018 16.608ZM90.3166 9.324V19.728H90.8686C91.0286 19.728 91.1606 19.708 91.2646 19.668C91.3766 19.62 91.4926 19.528 91.6126 19.392L95.4526 15.276C95.5646 15.14 95.6806 15.036 95.8006 14.964C95.9286 14.884 96.0966 14.844 96.3046 14.844H98.2366L93.7606 19.608C93.5446 19.88 93.3126 20.092 93.0646 20.244C93.2086 20.34 93.3366 20.452 93.4486 20.58C93.5686 20.7 93.6806 20.84 93.7846 21L98.5366 27H96.6286C96.4446 27 96.2846 26.972 96.1486 26.916C96.0206 26.852 95.9086 26.74 95.8126 26.58L91.8166 21.6C91.6966 21.432 91.5766 21.324 91.4566 21.276C91.3446 21.22 91.1686 21.192 90.9286 21.192H90.3166V27H88.1686V9.324H90.3166ZM107.812 19.596C107.812 19.1 107.74 18.648 107.596 18.24C107.46 17.824 107.256 17.468 106.984 17.172C106.72 16.868 106.396 16.636 106.012 16.476C105.628 16.308 105.192 16.224 104.704 16.224C103.68 16.224 102.868 16.524 102.268 17.124C101.676 17.716 101.308 18.54 101.164 19.596H107.812ZM109.54 25.296C109.276 25.616 108.96 25.896 108.592 26.136C108.224 26.368 107.828 26.56 107.404 26.712C106.988 26.864 106.556 26.976 106.108 27.048C105.66 27.128 105.216 27.168 104.776 27.168C103.936 27.168 103.16 27.028 102.448 26.748C101.744 26.46 101.132 26.044 100.612 25.5C100.1 24.948 99.7004 24.268 99.4124 23.46C99.1244 22.652 98.9804 21.724 98.9804 20.676C98.9804 19.828 99.1084 19.036 99.3644 18.3C99.6284 17.564 100.004 16.928 100.492 16.392C100.98 15.848 101.576 15.424 102.28 15.12C102.984 14.808 103.776 14.652 104.656 14.652C105.384 14.652 106.056 14.776 106.672 15.024C107.296 15.264 107.832 15.616 108.28 16.08C108.736 16.536 109.092 17.104 109.348 17.784C109.604 18.456 109.732 19.224 109.732 20.088C109.732 20.424 109.696 20.648 109.624 20.76C109.552 20.872 109.416 20.928 109.216 20.928H101.092C101.116 21.696 101.22 22.364 101.404 22.932C101.596 23.5 101.86 23.976 102.196 24.36C102.532 24.736 102.932 25.02 103.396 25.212C103.86 25.396 104.38 25.488 104.956 25.488C105.492 25.488 105.952 25.428 106.336 25.308C106.728 25.18 107.064 25.044 107.344 24.9C107.624 24.756 107.856 24.624 108.04 24.504C108.232 24.376 108.396 24.312 108.532 24.312C108.708 24.312 108.844 24.38 108.94 24.516L109.54 25.296ZM120.276 17.736C119.876 17.2 119.444 16.828 118.98 16.62C118.516 16.404 117.996 16.296 117.42 16.296C116.292 16.296 115.424 16.7 114.816 17.508C114.208 18.316 113.904 19.468 113.904 20.964C113.904 21.756 113.972 22.436 114.108 23.004C114.244 23.564 114.444 24.028 114.708 24.396C114.972 24.756 115.296 25.02 115.68 25.188C116.064 25.356 116.5 25.44 116.988 25.44C117.692 25.44 118.304 25.28 118.824 24.96C119.352 24.64 119.836 24.188 120.276 23.604V17.736ZM122.412 9.324V27H121.14C120.836 27 120.644 26.852 120.564 26.556L120.372 25.08C119.852 25.704 119.26 26.208 118.596 26.592C117.932 26.976 117.164 27.168 116.292 27.168C115.596 27.168 114.964 27.036 114.396 26.772C113.828 26.5 113.344 26.104 112.944 25.584C112.544 25.064 112.236 24.416 112.02 23.64C111.804 22.864 111.696 21.972 111.696 20.964C111.696 20.068 111.816 19.236 112.056 18.468C112.296 17.692 112.64 17.02 113.088 16.452C113.536 15.884 114.084 15.44 114.732 15.12C115.388 14.792 116.124 14.628 116.94 14.628C117.684 14.628 118.32 14.756 118.848 15.012C119.384 15.26 119.86 15.608 120.276 16.056V9.324H122.412ZM128.042 14.844V27H125.906V14.844H128.042ZM128.498 11.028C128.498 11.236 128.454 11.432 128.366 11.616C128.286 11.792 128.174 11.952 128.03 12.096C127.894 12.232 127.73 12.34 127.538 12.42C127.354 12.5 127.158 12.54 126.95 12.54C126.742 12.54 126.546 12.5 126.362 12.42C126.186 12.34 126.03 12.232 125.894 12.096C125.758 11.952 125.65 11.792 125.57 11.616C125.49 11.432 125.45 11.236 125.45 11.028C125.45 10.82 125.49 10.624 125.57 10.44C125.65 10.248 125.758 10.084 125.894 9.948C126.03 9.804 126.186 9.692 126.362 9.612C126.546 9.532 126.742 9.492 126.95 9.492C127.158 9.492 127.354 9.532 127.538 9.612C127.73 9.692 127.894 9.804 128.03 9.948C128.174 10.084 128.286 10.248 128.366 10.44C128.454 10.624 128.498 10.82 128.498 11.028ZM133.567 16.608C133.831 16.312 134.111 16.044 134.407 15.804C134.703 15.564 135.015 15.36 135.343 15.192C135.679 15.016 136.031 14.884 136.399 14.796C136.775 14.7 137.179 14.652 137.611 14.652C138.275 14.652 138.859 14.764 139.363 14.988C139.875 15.204 140.299 15.516 140.635 15.924C140.979 16.324 141.239 16.808 141.415 17.376C141.591 17.944 141.679 18.572 141.679 19.26V27H139.531V19.26C139.531 18.34 139.319 17.628 138.895 17.124C138.479 16.612 137.843 16.356 136.987 16.356C136.355 16.356 135.763 16.508 135.211 16.812C134.667 17.116 134.163 17.528 133.699 18.048V27H131.551V14.844H132.835C133.139 14.844 133.327 14.992 133.399 15.288L133.567 16.608Z" fill="#E7F1E9"/>
<g clip-path="url(#clip0_65_6412)">
<path d="M40.8899 33.6759C40.9821 33.6768 41.0736 33.6591 41.1586 33.6239C41.2436 33.5886 41.3203 33.5366 41.384 33.471C41.4476 33.4054 41.4969 33.3277 41.5287 33.2427C41.5605 33.1576 41.5742 33.0671 41.5689 32.9766C41.5689 32.4806 41.2641 32.2437 40.639 32.2437H39.6289V34.8404H40.0088V33.7084H40.4757L40.4864 33.7222L41.2109 34.8404H41.6172L40.8377 33.6831L40.8899 33.6759ZM40.4505 33.4158H40.0099V32.5379H40.5683C40.8567 32.5379 41.1856 32.5842 41.1856 32.9551C41.1856 33.3816 40.8528 33.4158 40.4482 33.4158" fill="white"/>
<path d="M30.9795 30.4222H25.5922V22.1372C25.5922 20.1616 25.5563 17.6183 22.7902 17.6183C19.9843 17.6183 19.555 19.7709 19.555 21.9934V30.4216H14.1676V13.3844H19.3395V15.7127H19.4119C19.9295 14.8436 20.6774 14.1287 21.576 13.6441C22.4746 13.1595 23.4902 12.9232 24.5147 12.9606C29.975 12.9606 30.9818 16.4875 30.9818 21.0758L30.9795 30.4222ZM8.08894 11.0555C7.4706 11.0556 6.86611 10.8756 6.35192 10.5384C5.83774 10.2011 5.43697 9.72173 5.20024 9.16079C4.96351 8.59984 4.90147 7.98257 5.02199 7.38701C5.14252 6.79145 5.44018 6.24436 5.87733 5.81493C6.31448 5.38549 6.87149 5.093 7.47792 4.97443C8.08435 4.85586 8.71295 4.91655 9.28426 5.14882C9.85556 5.38108 10.3439 5.77449 10.6875 6.27931C11.0311 6.78412 11.2146 7.37766 11.2147 7.98486C11.2148 8.38803 11.134 8.78726 10.9769 9.15977C10.8199 9.53228 10.5897 9.87076 10.2994 10.1559C10.0092 10.441 9.66456 10.6672 9.28528 10.8216C8.90601 10.9759 8.49949 11.0554 8.08894 11.0555ZM10.7826 30.4222H5.38965V13.3844H10.7826V30.4222ZM33.6654 0.00243257H2.68253C1.9793 -0.00536048 1.30166 0.261328 0.798572 0.743895C0.295481 1.22646 0.00809417 1.88543 -0.000488281 2.57599V33.1274C0.00780043 33.8183 0.295019 34.4777 0.798093 34.9608C1.30117 35.4439 1.97895 35.7111 2.68253 35.7037H33.6654C34.3703 35.7124 35.05 35.446 35.5551 34.9629C36.0601 34.4799 36.3493 33.8197 36.359 33.1274V2.57378C36.349 1.88185 36.0596 1.22214 35.5545 0.739584C35.0495 0.257028 34.37 -0.00889836 33.6654 0.000227348" fill="white"/>
<path d="M40.4965 31.0869C39.841 31.0931 39.2147 31.3539 38.7546 31.8124C38.2944 32.2708 38.0379 32.8895 38.041 33.5332C38.0442 34.1769 38.3068 34.7931 38.7714 35.2472C39.236 35.7013 39.8648 35.9562 40.5203 35.9562C41.1758 35.9562 41.8046 35.7013 42.2692 35.2472C42.7338 34.7931 42.9965 34.1769 42.9996 33.5332C43.0028 32.8895 42.7462 32.2708 42.2861 31.8124C41.8259 31.3539 41.1996 31.0931 40.5442 31.0869H40.4965ZM40.4965 35.6774C40.0666 35.6844 39.6442 35.5661 39.2827 35.3374C38.9213 35.1087 38.637 34.7799 38.4659 34.3925C38.2948 34.0052 38.2444 33.5767 38.3213 33.1612C38.3981 32.7458 38.5987 32.3621 38.8977 32.0586C39.1966 31.7551 39.5805 31.5454 40.0007 31.4562C40.421 31.3669 40.8588 31.4021 41.2587 31.5571C41.6587 31.7122 42.0028 31.9802 42.2476 32.3274C42.4924 32.6745 42.6268 33.0851 42.634 33.5073C42.634 33.5194 42.634 33.531 42.634 33.5431C42.646 34.0969 42.4336 34.6328 42.0434 35.0328C41.6532 35.4329 41.1171 35.6643 40.5531 35.6763H40.497" fill="white"/>
</g>
<defs>
<clipPath id="clip0_65_6412">
<rect width="43" height="36" fill="white"/>
</clipPath>
</defs>
</svg>
