<svg width="59" height="59" viewBox="0 0 59 59" fill="none" xmlns="http://www.w3.org/2000/svg">
<path d="M43.4068 40.9482L32.9761 51.3789C32.52 51.8356 31.9783 52.1978 31.382 52.4449C30.7858 52.6921 30.1467 52.8193 29.5013 52.8193C28.8558 52.8193 28.2167 52.6921 27.6205 52.4449C27.0243 52.1978 26.4826 51.8356 26.0264 51.3789L15.5933 40.9482C12.8429 38.1978 10.97 34.6935 10.2112 30.8786C9.45244 27.0636 9.84196 23.1094 11.3305 19.5158C12.8191 15.9223 15.3398 12.8508 18.5739 10.6898C21.8081 8.52889 25.6104 7.37549 29.5 7.37549C33.3897 7.37549 37.192 8.52889 40.4262 10.6898C43.6603 12.8508 46.181 15.9223 47.6696 19.5158C49.1581 23.1094 49.5477 27.0636 48.7889 30.8786C48.0301 34.6935 46.1572 38.1978 43.4068 40.9482V40.9482Z" stroke="#0B721A" stroke-width="2" stroke-linecap="round" stroke-linejoin="round"/>
<path d="M34.7149 32.2564C36.098 30.8733 36.875 28.9975 36.875 27.0415C36.875 25.0855 36.098 23.2097 34.7149 21.8266C33.3318 20.4435 31.456 19.6665 29.5 19.6665C27.544 19.6665 25.6682 20.4435 24.2851 21.8266C22.902 23.2097 22.125 25.0855 22.125 27.0415C22.125 28.9975 22.902 30.8733 24.2851 32.2564C25.6682 33.6395 27.544 34.4165 29.5 34.4165C31.456 34.4165 33.3318 33.6395 34.7149 32.2564Z" fill="url(#paint0_linear_65_6347)"/>
<defs>
<linearGradient id="paint0_linear_65_6347" x1="40.0485" y1="17.9785" x2="20.2144" y2="20.4651" gradientUnits="userSpaceOnUse">
<stop stop-color="#E4D200"/>
<stop offset="1" stop-color="#DF6500"/>
</linearGradient>
</defs>
</svg>
