<svg width="56" height="56" viewBox="0 0 56 56" fill="none" xmlns="http://www.w3.org/2000/svg">
<circle cx="28" cy="28" r="28" fill="url(#paint0_linear_65_6359)"/>
<path d="M33.657 32.6572L29.414 36.9002C29.2284 37.0859 29.0081 37.2333 28.7656 37.3338C28.523 37.4344 28.2631 37.4861 28.0005 37.4861C27.738 37.4861 27.478 37.4344 27.2354 37.3338C26.9929 37.2333 26.7726 37.0859 26.587 36.9002L22.343 32.6572C21.2242 31.5384 20.4623 30.1129 20.1537 28.5611C19.845 27.0092 20.0035 25.4007 20.609 23.9389C21.2145 22.4771 22.2399 21.2277 23.5555 20.3487C24.8711 19.4697 26.4178 19.0005 28 19.0005C29.5822 19.0005 31.1289 19.4697 32.4445 20.3487C33.7601 21.2277 34.7855 22.4771 35.391 23.9389C35.9965 25.4007 36.155 27.0092 35.8463 28.5611C35.5377 30.1129 34.7758 31.5384 33.657 32.6572V32.6572Z" stroke="#3C8E48" stroke-width="2" stroke-linecap="round" stroke-linejoin="round"/>
<path d="M30.1213 29.1213C30.6839 28.5587 31 27.7956 31 27C31 26.2044 30.6839 25.4413 30.1213 24.8787C29.5587 24.3161 28.7956 24 28 24C27.2044 24 26.4413 24.3161 25.8787 24.8787C25.3161 25.4413 25 26.2044 25 27C25 27.7956 25.3161 28.5587 25.8787 29.1213C26.4413 29.6839 27.2044 30 28 30C28.7956 30 29.5587 29.6839 30.1213 29.1213Z" stroke="#3C8E48" stroke-width="2" stroke-linecap="round" stroke-linejoin="round"/>
<defs>
<linearGradient id="paint0_linear_65_6359" x1="68.0485" y1="-6.40888" x2="-7.25389" y2="3.03201" gradientUnits="userSpaceOnUse">
<stop stop-color="#E4D200"/>
<stop offset="1" stop-color="#DF6500"/>
</linearGradient>
</defs>
</svg>
