<svg width="76" height="76" viewBox="0 0 76 76" fill="none" xmlns="http://www.w3.org/2000/svg">
<path d="M75.3011 38C75.3011 58.9868 58.4444 76 37.6506 76C16.8567 76 0 58.9868 0 38C0 17.0132 16.8567 0 37.6506 0C58.4444 0 75.3011 17.0132 75.3011 38ZM5.58986 38C5.58986 55.871 19.9439 70.3583 37.6506 70.3583C55.3572 70.3583 69.7113 55.871 69.7113 38C69.7113 20.129 55.3572 5.64173 37.6506 5.64173C19.9439 5.64173 5.58986 20.129 5.58986 38Z" fill="#DF6500"/>
<ellipse cx="37.6507" cy="38" rx="27.7425" ry="28" fill="#DF6500"/>
<path d="M40.6234 26.6667H32.6969V24H40.6234V26.6667ZM37.9812 48C37.9812 49.3733 38.3247 50.6667 38.9192 51.7733C38.1926 51.92 37.4396 52 36.6602 52C33.5068 52 30.4827 50.7357 28.2529 48.4853C26.0232 46.2348 24.7705 43.1826 24.7705 40C24.7705 36.8174 26.0232 33.7652 28.2529 31.5147C30.4827 29.2643 33.5068 28 36.6602 28C39.4608 28 42.0369 28.9867 44.0846 30.6667L45.9605 28.7467C46.6343 29.3333 47.2287 29.9467 47.8232 30.6267L45.9473 32.52C47.6328 34.6418 48.5509 37.2804 48.5498 40V40.4667C47.7043 40.1733 46.8324 40 45.9077 40C41.5349 40 37.9812 43.5867 37.9812 48ZM37.9812 32H35.3391V41.3333H37.9812V32ZM48.999 43.7867L44.2563 48.5733L42.1558 46.4533L40.6234 48L44.2563 52L50.5314 45.6667L48.999 43.7867Z" fill="white"/>
</svg>
