<svg width="56" height="56" viewBox="0 0 56 56" fill="none" xmlns="http://www.w3.org/2000/svg">
<circle cx="28" cy="28" r="28" fill="url(#paint0_linear_65_6365)"/>
<path d="M19.5858 19.5858C19.2107 19.9609 19 20.4696 19 21V22C19 30.284 25.716 37 34 37H35C35.5304 37 36.0391 36.7893 36.4142 36.4142C36.7893 36.0391 37 35.5304 37 35V31.721C37.0001 31.511 36.934 31.3064 36.8112 31.136C36.6885 30.9657 36.5152 30.8383 36.316 30.772L31.823 29.274C31.5947 29.1981 31.3466 29.2071 31.1244 29.2993C30.9021 29.3915 30.7205 29.5607 30.613 29.776L29.483 32.033C27.0345 30.9267 25.0733 28.9655 23.967 26.517L26.224 25.387C26.4393 25.2795 26.6085 25.0979 26.7007 24.8756C26.7929 24.6534 26.8019 24.4053 26.726 24.177L25.228 19.684C25.1617 19.485 25.0345 19.3118 24.8644 19.189C24.6942 19.0663 24.4898 19.0002 24.28 19H21C20.4696 19 19.9609 19.2107 19.5858 19.5858Z" stroke="#3C8E48" stroke-width="2" stroke-linecap="round" stroke-linejoin="round"/>
<defs>
<linearGradient id="paint0_linear_65_6365" x1="68.0485" y1="-6.40888" x2="-7.25389" y2="3.03201" gradientUnits="userSpaceOnUse">
<stop stop-color="#E4D200"/>
<stop offset="1" stop-color="#DF6500"/>
</linearGradient>
</defs>
</svg>
