<svg width="123" height="36" viewBox="0 0 123 36" fill="none" xmlns="http://www.w3.org/2000/svg">
<path d="M61.824 11.76H56.256V27H53.94V11.76H48.36V9.804H61.824V11.76ZM78.5263 14.844L74.5903 27H72.8983C72.6903 27 72.5463 26.864 72.4663 26.592L69.7783 18.348C69.7143 18.164 69.6623 17.98 69.6223 17.796C69.5823 17.604 69.5423 17.416 69.5023 17.232C69.4623 17.416 69.4223 17.604 69.3823 17.796C69.3423 17.98 69.2903 18.168 69.2263 18.36L66.4903 26.592C66.4183 26.864 66.2583 27 66.0103 27H64.4023L60.4663 14.844H62.1463C62.3143 14.844 62.4543 14.888 62.5663 14.976C62.6863 15.064 62.7663 15.168 62.8063 15.288L65.1343 23.112C65.2703 23.688 65.3783 24.232 65.4583 24.744C65.5303 24.48 65.6023 24.212 65.6743 23.94C65.7543 23.668 65.8383 23.392 65.9263 23.112L68.4943 15.24C68.5343 15.12 68.6023 15.02 68.6983 14.94C68.8023 14.86 68.9263 14.82 69.0703 14.82H70.0063C70.1663 14.82 70.2983 14.86 70.4023 14.94C70.5063 15.02 70.5783 15.12 70.6183 15.24L73.1263 23.112C73.2143 23.392 73.2943 23.668 73.3663 23.94C73.4383 24.212 73.5063 24.48 73.5703 24.744C73.6103 24.48 73.6583 24.216 73.7143 23.952C73.7783 23.68 73.8463 23.4 73.9183 23.112L76.2943 15.288C76.3343 15.16 76.4103 15.056 76.5223 14.976C76.6343 14.888 76.7663 14.844 76.9183 14.844H78.5263ZM82.8621 14.844V27H80.7261V14.844H82.8621ZM83.3181 11.028C83.3181 11.236 83.2741 11.432 83.1861 11.616C83.1061 11.792 82.9941 11.952 82.8501 12.096C82.7141 12.232 82.5501 12.34 82.3581 12.42C82.1741 12.5 81.9781 12.54 81.7701 12.54C81.5621 12.54 81.3661 12.5 81.1821 12.42C81.0061 12.34 80.8501 12.232 80.7141 12.096C80.5781 11.952 80.4701 11.792 80.3901 11.616C80.3101 11.432 80.2701 11.236 80.2701 11.028C80.2701 10.82 80.3101 10.624 80.3901 10.44C80.4701 10.248 80.5781 10.084 80.7141 9.948C80.8501 9.804 81.0061 9.692 81.1821 9.612C81.3661 9.532 81.5621 9.492 81.7701 9.492C81.9781 9.492 82.1741 9.532 82.3581 9.612C82.5501 9.692 82.7141 9.804 82.8501 9.948C82.9941 10.084 83.1061 10.248 83.1861 10.44C83.2741 10.624 83.3181 10.82 83.3181 11.028ZM90.1037 27.192C89.1437 27.192 88.4037 26.924 87.8837 26.388C87.3717 25.852 87.1157 25.08 87.1157 24.072V16.632H85.6517C85.5237 16.632 85.4157 16.596 85.3277 16.524C85.2397 16.444 85.1957 16.324 85.1957 16.164V15.312L87.1877 15.06L87.6797 11.304C87.7037 11.184 87.7557 11.088 87.8357 11.016C87.9237 10.936 88.0357 10.896 88.1717 10.896H89.2517V15.084H94.9757L95.4677 11.304C95.4917 11.184 95.5437 11.088 95.6237 11.016C95.7117 10.936 95.8237 10.896 95.9597 10.896H97.0397V15.084H100.556V16.632H97.0397V23.928C97.0397 24.44 97.1637 24.82 97.4117 25.068C97.6677 25.316 97.9877 25.44 98.3717 25.44C98.5957 25.44 98.7877 25.412 98.9477 25.356C99.1157 25.292 99.2597 25.224 99.3797 25.152C99.4997 25.08 99.5997 25.016 99.6797 24.96C99.7677 24.896 99.8437 24.864 99.9077 24.864C100.028 24.864 100.128 24.932 100.208 25.068L100.844 26.088C100.468 26.432 100.02 26.704 99.4997 26.904C98.9797 27.096 98.4437 27.192 97.8917 27.192C96.9397 27.192 96.2037 26.924 95.6837 26.388C95.1637 25.852 94.9037 25.08 94.9037 24.072V16.632H89.2517V23.928C89.2517 24.44 89.3757 24.82 89.6237 25.068C89.8717 25.316 90.1917 25.44 90.5837 25.44C90.8077 25.44 90.9997 25.412 91.1597 25.356C91.3277 25.292 91.4717 25.224 91.5917 25.152C91.7117 25.08 91.8117 25.016 91.8917 24.96C91.9797 24.896 92.0557 24.864 92.1197 24.864C92.2317 24.864 92.3317 24.932 92.4197 25.068L93.0437 26.088C92.6757 26.432 92.2317 26.704 91.7117 26.904C91.1917 27.096 90.6557 27.192 90.1037 27.192ZM110.82 19.596C110.82 19.1 110.748 18.648 110.604 18.24C110.468 17.824 110.264 17.468 109.992 17.172C109.728 16.868 109.404 16.636 109.02 16.476C108.636 16.308 108.2 16.224 107.712 16.224C106.688 16.224 105.876 16.524 105.276 17.124C104.684 17.716 104.316 18.54 104.172 19.596H110.82ZM112.548 25.296C112.284 25.616 111.968 25.896 111.6 26.136C111.232 26.368 110.836 26.56 110.412 26.712C109.996 26.864 109.564 26.976 109.116 27.048C108.668 27.128 108.224 27.168 107.784 27.168C106.944 27.168 106.168 27.028 105.456 26.748C104.752 26.46 104.14 26.044 103.62 25.5C103.108 24.948 102.708 24.268 102.42 23.46C102.132 22.652 101.988 21.724 101.988 20.676C101.988 19.828 102.116 19.036 102.372 18.3C102.636 17.564 103.012 16.928 103.5 16.392C103.988 15.848 104.584 15.424 105.288 15.12C105.992 14.808 106.784 14.652 107.664 14.652C108.392 14.652 109.064 14.776 109.68 15.024C110.304 15.264 110.84 15.616 111.288 16.08C111.744 16.536 112.1 17.104 112.356 17.784C112.612 18.456 112.74 19.224 112.74 20.088C112.74 20.424 112.704 20.648 112.632 20.76C112.56 20.872 112.424 20.928 112.224 20.928H104.1C104.124 21.696 104.228 22.364 104.412 22.932C104.604 23.5 104.868 23.976 105.204 24.36C105.54 24.736 105.94 25.02 106.404 25.212C106.868 25.396 107.388 25.488 107.964 25.488C108.5 25.488 108.96 25.428 109.344 25.308C109.736 25.18 110.072 25.044 110.352 24.9C110.632 24.756 110.864 24.624 111.048 24.504C111.24 24.376 111.404 24.312 111.54 24.312C111.716 24.312 111.852 24.38 111.948 24.516L112.548 25.296ZM117.392 17.28C117.776 16.448 118.248 15.8 118.808 15.336C119.368 14.864 120.052 14.628 120.86 14.628C121.116 14.628 121.36 14.656 121.592 14.712C121.832 14.768 122.044 14.856 122.228 14.976L122.072 16.572C122.024 16.772 121.904 16.872 121.712 16.872C121.6 16.872 121.436 16.848 121.22 16.8C121.004 16.752 120.76 16.728 120.488 16.728C120.104 16.728 119.76 16.784 119.456 16.896C119.16 17.008 118.892 17.176 118.652 17.4C118.42 17.616 118.208 17.888 118.016 18.216C117.832 18.536 117.664 18.904 117.512 19.32V27H115.364V14.844H116.588C116.82 14.844 116.98 14.888 117.068 14.976C117.156 15.064 117.216 15.216 117.248 15.432L117.392 17.28Z" fill="#E7F1E9"/>
<g clip-path="url(#clip0_65_6406)">
<path d="M2.9918 2.56345L3.2438 2.99531C3.36163 2.92655 3.49699 2.89372 3.63323 2.90086C3.76946 2.908 3.90065 2.9548 4.01065 3.03549C4.12065 3.11619 4.20467 3.22727 4.25238 3.35508L4.25278 3.35612C5.33476 6.23474 9.29975 11.8789 16.7351 12.4531L17.2736 12.4947V11.9546V10.8986V10.8983C17.273 9.84858 17.4792 8.80901 17.8804 7.83896C18.2815 6.8689 18.8698 5.98736 19.6117 5.24467C20.3535 4.50197 21.2344 3.91267 22.204 3.51041C23.1736 3.10814 24.213 2.90079 25.2627 2.9002L25.2629 2.9002C27.2347 2.89829 29.1332 3.64723 30.5727 4.99481L30.7776 5.18665L31.0481 5.1116C32.2763 4.7708 33.3806 4.08377 34.229 3.13252C34.3209 3.03108 34.4406 2.95883 34.5732 2.92472C34.7063 2.89049 34.8466 2.8962 34.9765 2.94113L35.1399 2.46861L34.9765 2.94113C35.1063 2.98607 35.2201 3.06824 35.3036 3.17741C35.3869 3.28634 35.4364 3.41734 35.4459 3.55414C35.5762 5.51592 35.4784 6.95298 35.0486 8.16877C34.6638 9.2496 34.0366 10.0939 33.1951 10.9516L33.052 11.0975V11.3018V12.4514C33.052 23.8544 23.8216 33.1002 12.432 33.1002H12.3168C8.50741 33.1002 4.56859 33.0897 0.810274 30.5827L0.810193 30.5826C0.68514 30.4992 0.590246 30.3778 0.539552 30.2363L0.0688487 30.4049L0.539551 30.2363C0.488857 30.0948 0.485054 29.9407 0.528704 29.7969C0.572355 29.6531 0.661141 29.5271 0.781928 29.4377C0.902714 29.3482 1.04909 29.3 1.19939 29.3002H1.20001C5.40273 29.3002 8.98962 27.5076 11.1129 26.0043L11.8467 25.4847L11.0182 25.1355C6.54547 23.2498 3.44246 20.4293 1.90743 16.9328L1.90737 16.9327C0.155341 12.9451 0.505181 8.22219 2.96971 3.28844L2.96998 3.28788C3.0308 3.16576 3.12597 3.06406 3.2438 2.99531L2.9918 2.56345Z" fill="#E7F1E9" stroke="#E7F1E9"/>
</g>
<defs>
<clipPath id="clip0_65_6406">
<rect width="36" height="36" fill="white"/>
</clipPath>
</defs>
</svg>
